<svg xmlns="http://www.w3.org/2000/svg" xmlns:xlink="http://www.w3.org/1999/xlink" xmlns:inkscape="http://www.inkscape.org/namespaces/inkscape" version="1.1" viewBox="206.29 213.26 429.31 127.95">
<defs>
<clipPath id="clip_0">
<path transform="matrix(1,0,0,-1,0,595.276)" d="M0 595.276H841.89V0H0Z"/>
</clipPath>
</defs>
<g inkscape:groupmode="layer" inkscape:label="Layer 1">
<g clip-path="url(#clip_0)">
<path transform="matrix(1,0,0,-1,539.2559,334.7426)" d="M0 0H-4.022V14.778H11.514C13.665 14.778 15.242 14.391 16.247 13.615 17.347 12.767 17.896 11.353 17.896 9.373V0H13.845V8.867C13.845 9.834 13.698 10.504 13.404 10.878 13.035 11.344 12.305 11.576 11.215 11.576 10.922 11.576 10.604 11.563 10.263 11.535H9.523 9.226 8.941V0H4.776V11.535H0Z" fill="#ed1c24"/>
<path transform="matrix(1,0,0,-1,566.4766,331.8012)" d="M0 0H5.074V3.093H.284C-.455 3.093-.995 3.02-1.336 2.874-1.886 2.637-2.16 2.194-2.16 1.547-2.16 .936-1.976 .516-1.606 .288-1.294 .097-.758 0 0 0M1.364 8.785H-5.416V11.837H2.886C7.103 11.837 9.211 9.998 9.211 6.322V-2.941H-1.663C-3.142-2.941-4.307-2.55-5.16-1.765-6.013-.98-6.439 .087-6.439 1.437-6.439 3.234-5.833 4.488-4.62 5.2-3.672 5.757-2.231 6.035-.299 6.035H5.074C5.074 7.075 4.812 7.793 4.285 8.19 3.76 8.587 2.786 8.785 1.364 8.785" fill="#ed1c24"/>
<path transform="matrix(1,0,0,-1,583.3203,334.7426)" d="M0 0H-4.022V14.778H2.801C4.657 14.778 5.847 14.422 6.368 13.711 6.823 13.081 7.05 11.681 7.05 9.51V8.607H3.199V9.783C3.199 10.86 3.065 11.489 2.801 11.672 2.535 11.854 1.602 11.946 0 11.946Z" fill="#ed1c24"/>
<path transform="matrix(1,0,0,-1,623.3057,331.6909)" d="M0 0V-3.052H-5.913C-7.923-3.052-9.548-2.66-10.789-1.875-11.841-1.209-12.608-.27-13.092 .944-13.48 1.92-13.674 3.056-13.674 4.351-13.674 6.485-13.12 8.187-12.011 9.455-10.685 10.969-8.652 11.727-5.913 11.727H0V8.675H-5.358C-6.686 8.675-7.614 8.516-8.146 8.196-8.818 7.795-9.154 7.02-9.154 5.87H0V2.75H-9.154C-9.154 1.637-8.905 .9-8.408 .54-7.91 .18-6.903 0-5.387 0Z" fill="#ed1c24"/>
<path transform="matrix(1,0,0,-1,631.252,318.4799)" d="M0 0H-4.052V-1.484H-6.88V-4.427H-4.052V-11.665C-4.052-13.125-3.649-14.256-2.844-15.059-2.038-15.861-.877-16.263 .639-16.263H4.349V-13.321H3.937C2.354-13.321 1.312-13.143 .81-12.787 .27-12.404 0-11.61 0-10.406V-4.427H4.349V-1.484H0Z" fill="#ed1c24"/>
<path transform="matrix(1,0,0,-1,603.7178,319.9643)" d="M0 0-6.553-7.116V1.484H-10.604V-14.778H-6.553V-7.595L-.341-14.778H5.132L-2.004-7.198 5.132 0Z" fill="#ed1c24"/>
<path transform="matrix(1,0,0,-1,457.6484,320.0961)" d="M0 0-8.343-14.752H-14.733L0 11.05 14.733-14.752H-3.684V-9.228H5.212Z" fill="#ed1c24"/>
<path transform="matrix(1,0,0,-1,407.124,320.0961)" d="M0 0-8.343-14.752H-14.733L0 11.05 14.733-14.752H-3.684V-9.228H5.212Z" fill="#ed1c24"/>
<path transform="matrix(1,0,0,-1,478.8604,324.0375)" d="M0 0V-10.811H-5.525V13.37L5.525 2.32 16.575 13.37V-10.811H11.051V0L5.525-5.525Z" fill="#ed1c24"/>
<path transform="matrix(1,0,0,-1,511.123,320.0961)" d="M0 0-8.343-14.752H-14.734L0 11.05 14.733-14.752H-3.684V-9.228H5.212Z" fill="#ed1c24"/>
<path transform="matrix(1,0,0,-1,423.0781,334.8481)" d="M0 0H5.524V9.208H9.208L12.892 12.892V0H18.417V23.941H11.05V18.417H12.892V14.733H5.524V23.941H-1.842V18.417H0Z" fill="#ed1c24"/>
<path transform="matrix(1,0,0,-1,373.1426,334.8481)" d="M0 0H5.525V9.208H9.208L12.892 12.892V0H18.417V23.941H11.05V18.417H12.892V14.733H5.525V23.941H-1.842V18.417H0Z" fill="#ed1c24"/>
<path transform="matrix(1,0,0,-1,358.4092,334.8481)" d="M0 0H5.525V18.417H11.05V23.941H-5.525V18.417H0Z" fill="#ed1c24"/>
<path transform="matrix(1,0,0,-1,0,595.276)" d="M531.062 268.407H527.071V272.398H531.062Z" fill="#ed1c24"/>
<path transform="matrix(1,0,0,-1,0,595.276)" d="M531.062 260.744H527.071V264.735H531.062Z" fill="#ed1c24"/>
<path transform="matrix(1,0,0,-1,0,595.276)" d="M386.757 298.094H372.244V306.37699H386.757Z" fill="#39b54a"/>
<path transform="matrix(1,0,0,-1,0,595.276)" d="M437.475 298.094H422.962V306.37699H437.475Z" fill="#39b54a"/>
<path transform="matrix(1,0,0,-1,0,595.276)" d="M449.453 298.094H434.94V306.37699H449.453Z" fill="#39b54a"/>
<path transform="matrix(1,0,0,-1,0,595.276)" d="M594.271 298.094H579.758V306.37699H594.271Z" fill="#39b54a"/>
<path transform="matrix(1,0,0,-1,364.0415,288.92723)" d="M0 0-.028 4.991C-1.816 4.991-3.058 4.616-3.756 3.865-4.454 3.115-4.803 1.826-4.803 0ZM10.899-8.255H-10.737L-10.657 2.617C-10.243 4.811-9.419 6.569-8.189 7.892-6.956 9.214-5.496 10.009-3.804 10.279L2.13 11.196C2.993 12.437 3.524 13.147 3.724 13.328 4.297 13.884 5.117 14.163 6.177 14.163V0H10.899Z" fill="#39b54a"/>
<path transform="matrix(1,0,0,-1,401.2427,288.92723)" d="M0 0V4.235C-1.69 4.235-2.876 3.965-3.561 3.422-4.353 2.787-4.748 1.647-4.748 0ZM6.232-8.255H-17.186V0H-10.765C-10.765 2.324-10.17 4.353-8.983 6.083-7.707 7.992-5.98 9.127-3.804 9.488-3.03 9.614-1.07 9.912 2.077 10.381 2.94 11.588 3.489 12.299 3.723 12.516 4.334 13.075 5.172 13.354 6.232 13.354Z" fill="#39b54a"/>
<path transform="matrix(1,0,0,-1,425.0664,297.1821)" d="M0 0H-9.552C-11.188 0-12.006 .845-12.006 2.535V31.564C-11.466 32.625-10.514 33.75-9.146 34.936-7.869 36.051-6.636 36.888-5.45 37.445V8.255H0Z" fill="#39b54a"/>
<path transform="matrix(1,0,0,-1,471.0625,288.92723)" d="M0 0C0 3.416-.98 5.241-2.94 5.477V0ZM-9.497 0V5.477C-11.494 5.477-12.49 3.651-12.49 0ZM11.113-8.255H-24.146V0H-19.451C-19.451 7.527-16.134 12.128-9.497 13.803V16.881C-8.239 19.241-6.054 21.186-2.94 22.716V13.803C3.659 12.145 6.961 7.545 6.961 0H11.113Z" fill="#39b54a"/>
<path transform="matrix(1,0,0,-1,498.4727,271.6879)" d="M0 0C0-.971-.337-1.799-1.013-2.481-1.685-3.166-2.509-3.508-3.48-3.508-4.47-3.508-5.296-3.17-5.962-2.495-6.628-1.822-6.96-.989-6.96 0-6.96 .988-6.628 1.812-5.962 2.468-5.296 3.125-4.47 3.453-3.48 3.453-2.49 3.453-1.664 3.125-.998 2.468-.333 1.812 0 .988 0 0M-9.874 0C-9.874-.989-10.199-1.822-10.854-2.495-11.508-3.17-12.327-3.508-13.313-3.508-14.3-3.508-15.124-3.17-15.785-2.495-16.448-1.822-16.779-.989-16.779 0-16.779 .988-16.448 1.812-15.785 2.468-15.124 3.125-14.3 3.453-13.313 3.453-12.346 3.453-11.531 3.12-10.867 2.455-10.206 1.79-9.874 .971-9.874 0M-2.833-22.959C-2.833-24.649-3.668-25.494-5.342-25.494H-18.749V-17.239H-9.387V-12.641C-8.848-11.614-7.886-10.495-6.501-9.287-5.188-8.133-3.965-7.294-2.833-6.772Z" fill="#39b54a"/>
<path transform="matrix(1,0,0,-1,541.4502,266.0761)" d="M0 0C0-.972-.338-1.791-1.013-2.455-1.687-3.121-2.51-3.454-3.48-3.454-4.417-3.454-5.234-3.116-5.937-2.441-6.638-1.768-6.988-.954-6.988 0-6.988 .988-6.651 1.816-5.976 2.481-5.304 3.146-4.47 3.48-3.48 3.48-2.493 3.48-1.665 3.146-.999 2.481-.333 1.816 0 .988 0 0M-6.181-18.588V-15.729H-7.007C-9.621-15.729-10.928-16.683-10.928-18.588ZM-9.849 0C-9.849-.972-10.182-1.791-10.848-2.455-11.511-3.121-12.33-3.454-13.302-3.454-14.31-3.454-15.149-3.13-15.824-2.483-16.499-1.835-16.835-1.008-16.835 0-16.835 .988-16.495 1.816-15.811 2.481-15.127 3.146-14.291 3.48-13.302 3.48-12.33 3.48-11.511 3.143-10.848 2.468-10.182 1.794-9.849 .971-9.849 0M0-34.424C0-37.482-1.437-40.144-4.31-42.41-7.019-44.533-9.945-45.593-13.086-45.593-16.713-45.593-19.764-44.829-22.241-43.3-25.184-41.484-26.655-38.885-26.655-35.503V-32.105C-26.079-31.043-25.145-29.91-23.85-28.705-22.556-27.501-21.368-26.7-20.289-26.304V-31.808C-20.289-36.142-18.049-38.309-13.57-38.309-11.888-38.309-10.301-37.833-8.813-36.879-7.129-35.818-6.288-34.496-6.288-32.914V-24.577H-12.971C-14.58-24.577-15.673-23.984-16.244-22.797-16.64-22.006-16.835-20.684-16.835-18.832-16.835-17.537-16.747-16.538-16.566-15.836-16.263-14.542-15.487-13.368-14.24-12.316-12.994-11.264-11.699-10.656-10.354-10.495-9.854-10.441-7.765-10.252-4.089-9.929-2.404-8.724-1.04-8.121 0-8.121Z" fill="#39b54a"/>
<path transform="matrix(1,0,0,-1,554.3701,297.1821)" d="M0 0H-6.555V31.564C-6.089 32.517-5.124 33.623-3.669 34.882-2.338 36.051-1.114 36.906 0 37.445Z" fill="#39b54a"/>
<path transform="matrix(1,0,0,-1,571.6377,288.92723)" d="M0 0 .053 4.235C-1.621 4.235-2.813 3.957-3.521 3.4-4.323 2.751-4.723 1.628-4.723 .028ZM10.817-8.255H6.23C6.23-12.519 5.863-15.368 5.124-16.808 3.974-19.091 1.492-20.233-2.321-20.233-7.7-20.233-10.388-17.364-10.388-11.627-9.201-12.49-7.69-12.922-5.856-12.922H-2.053C-.647-12.922 .053-12.076 .053-10.387 .053-10.134 .044-9.775 .025-9.308 .007-8.839 0-8.488 0-8.255H-10.765V0C-10.765 2.289-10.163 4.316-8.958 6.083-7.663 8.011-5.928 9.146-3.751 9.488-2.906 9.614-.955 9.912 2.103 10.381 3.11 11.769 3.65 12.48 3.721 12.516 4.315 13.075 5.151 13.354 6.23 13.354V0H10.817Z" fill="#39b54a"/>
<path transform="matrix(1,0,0,-1,622.5986,294.6469)" d="M0 0C0-1.69-.819-2.535-2.454-2.535H-30.862V5.72H-27.139V8.917C-26.799 9.729-25.81 10.523-24.173 11.301-22.679 12.004-21.43 12.356-20.422 12.356V5.72H-17.213V11.321C-16.815 12.168-15.835 12.98-14.271 13.756-12.796 14.478-11.538 14.838-10.495 14.838V5.72H-7.339V13.616C-7.016 14.426-5.927 15.256-4.074 16.103-2.383 16.897-1.026 17.312 0 17.347Z" fill="#39b54a"/>
<path transform="matrix(1,0,0,-1,634.6836,297.1821)" d="M0 0H-6.555V31.564C-6.089 32.517-5.124 33.623-3.669 34.882-2.337 36.051-1.113 36.906 0 37.445ZM.323 41.789C.323 41.519 .314 41.25 .298 40.979H-8.389V44.136H-7.716V46.91C-7.716 48.244-7.17 48.911-6.074 48.911H-.43C-.143 48.911 0 48.227 0 46.861 0 46.106-.134 45.637-.399 45.457H-3.104C-3.302 45.457-3.397 45.26-3.397 44.864-3.397 44.378-3.265 44.136-2.994 44.136H-.457C.063 44.136 .323 43.353 .323 41.789" fill="#39b54a"/>
<path transform="matrix(1,0,0,-1,361.1533,266.0761)" d="M0 0C0-.972-.333-1.791-.999-2.455-1.662-3.121-2.481-3.454-3.453-3.454-4.46-3.454-5.301-3.13-5.976-2.483-6.65-1.835-6.985-1.008-6.985 0-6.985 .988-6.646 1.816-5.962 2.481-5.278 3.146-4.442 3.48-3.453 3.48-2.481 3.48-1.662 3.143-.999 2.468-.333 1.794 0 .971 0 0" fill="#39b54a"/>
<path transform="matrix(1,0,0,-1,371.002,266.0761)" d="M0 0C0-.972-.337-1.791-1.013-2.455-1.687-3.121-2.509-3.454-3.48-3.454-4.417-3.454-5.234-3.116-5.937-2.441-6.637-1.768-6.988-.954-6.988 0-6.988 .988-6.651 1.816-5.976 2.481-5.303 3.146-4.47 3.48-3.48 3.48-2.493 3.48-1.665 3.146-.999 2.481-.333 1.816 0 .988 0 0" fill="#39b54a"/>
<path transform="matrix(1,0,0,-1,231.104,328.67723)" d="M0 0C-.098 .303-.059 .604 .13 .903 .319 1.202 .609 1.416 1.004 1.542 1.4 1.668 1.763 1.661 2.087 1.526 2.412 1.39 2.62 1.168 2.713 .863 2.806 .559 2.759 .258 2.571-.036 2.381-.332 2.094-.539 1.706-.663 1.318-.786 .962-.783 .638-.651 .312-.52 .102-.303 0 0M4.068-7.864C3.889-7.301 3.709-6.736 3.531-6.173 3.301-5.451 2.971-4.944 2.536-4.658 2.101-4.373 1.576-4.329 .968-4.533 .708-4.621 .473-4.752 .268-4.929 .062-5.104-.107-5.31-.233-5.544-.358-5.779-.438-6.036-.47-6.313-.497-6.593-.461-6.883-.355-7.184-.232-7.533-.06-7.81 .151-8.009 .365-8.209 .603-8.351 .867-8.435 1.134-8.519 1.413-8.549 1.708-8.524 2.005-8.501 2.301-8.44 2.595-8.343 3.085-8.18 3.577-8.021 4.068-7.864M-3.504-1.215C-3.613-.915-3.581-.612-3.399-.308-3.221-.004-2.935 .219-2.541 .356-2.149 .494-1.784 .499-1.457 .372-1.127 .246-.913 .03-.81-.271-.708-.573-.75-.875-.929-1.175-1.109-1.476-1.389-1.692-1.776-1.827-2.163-1.962-2.519-1.97-2.846-1.847-3.174-1.725-3.396-1.515-3.504-1.215M3.385-10.519C2.549-10.796 1.801-10.931 1.141-10.917 .481-10.903-.098-10.788-.602-10.568-1.105-10.35-1.523-10.049-1.859-9.663-2.192-9.277-2.45-8.855-2.624-8.396-2.845-7.811-2.942-7.212-2.911-6.597-2.881-5.982-2.737-5.401-2.479-4.853-2.218-4.306-1.846-3.813-1.355-3.38-.865-2.948-.273-2.613 .42-2.383 1.053-2.171 1.665-2.075 2.246-2.092 2.827-2.11 3.36-2.23 3.837-2.453 4.314-2.676 4.721-2.991 5.056-3.398 5.393-3.805 5.641-4.29 5.806-4.851 6.029-5.609 6.252-6.368 6.476-7.127 6.978-6.979 7.479-6.835 7.982-6.693 8.181-6.638 8.338-6.649 8.46-6.727 8.58-6.804 8.661-6.913 8.7-7.053 8.808-7.444 8.915-7.835 9.022-8.227 9.049-8.329 9.036-8.457 8.981-8.61 8.925-8.764 8.8-8.867 8.607-8.921 6.857-9.412 5.116-9.944 3.385-10.519" fill="#58595b"/>
<path transform="matrix(1,0,0,-1,239.6079,337.6274)" d="M0 0C-.22-.063-.39-.056-.502 .023-.615 .102-.69 .204-.727 .332-.835 .71-.943 1.087-1.051 1.464-1.093 1.604-1.082 1.753-1.018 1.908-.956 2.064-.826 2.17-.627 2.227 .548 2.558 1.726 2.87 2.909 3.164 3.137 3.222 3.305 3.208 3.417 3.125 3.524 3.043 3.602 2.931 3.635 2.789 3.73 2.395 3.827 2.001 3.922 1.606 3.947 1.503 3.929 1.376 3.871 1.225 3.813 1.073 3.684 .974 3.488 .925 2.322 .635 1.159 .326 0 0" fill="#58595b"/>
<path transform="matrix(1,0,0,-1,242.9902,336.7289)" d="M0 0C-.222-.056-.39-.043-.5 .039-.61 .12-.681 .226-.714 .354-.812 .734-.908 1.114-1.005 1.494-1.041 1.636-1.026 1.784-.959 1.938-.894 2.093-.759 2.195-.56 2.244 .622 2.54 1.807 2.816 2.996 3.075 3.225 3.126 3.393 3.107 3.501 3.021 3.613 2.936 3.677 2.82 3.709 2.678 3.794 2.281 3.877 1.885 3.962 1.488 3.983 1.384 3.963 1.257 3.899 1.107 3.835 .958 3.706 .862 3.509 .819 2.336 .564 1.167 .291 0 0" fill="#58595b"/>
<path transform="matrix(1,0,0,-1,246.394,335.933)" d="M0 0C-.225-.049-.39-.031-.498 .055-.608 .139-.67 .246-.703 .376-.789 .759-.875 1.142-.96 1.524-.992 1.667-.973 1.814-.901 1.967-.831 2.119-.695 2.217-.494 2.261 .694 2.521 1.886 2.762 3.079 2.984 3.31 3.027 3.478 3.004 3.583 2.915 3.688 2.827 3.754 2.709 3.78 2.566 3.853 2.167 3.925 1.769 3.998 1.369 4.016 1.265 3.992 1.138 3.924 .99 3.855 .844 3.725 .751 3.525 .714 2.348 .494 1.172 .257 0 0" fill="#58595b"/>
<path transform="matrix(1,0,0,-1,249.814,335.2387)" d="M0 0C-.226-.042-.391-.02-.495 .069-.6 .156-.667 .266-.691 .396-.765 .782-.84 1.167-.914 1.552-.943 1.694-.918 1.843-.842 1.992-.767 2.142-.627 2.236-.427 2.274 .767 2.498 1.963 2.703 3.162 2.891 3.389 2.927 3.562 2.898 3.662 2.807 3.765 2.715 3.828 2.596 3.849 2.452 3.909 2.051 3.97 1.649 4.03 1.249 4.044 1.144 4.02 1.019 3.946 .873 3.875 .728 3.739 .64 3.54 .608 2.357 .424 1.177 .221 0 0" fill="#58595b"/>
<path transform="matrix(1,0,0,-1,259.5259,331.6284)" d="M0 0C.681 .069 1.167 .305 1.462 .719 1.756 1.131 1.884 1.608 1.838 2.151 1.811 2.496 1.722 2.803 1.581 3.07 1.438 3.339 1.264 3.564 1.062 3.747 .856 3.929 .625 4.061 .368 4.144 .111 4.226-.154 4.254-.425 4.227-.711 4.198-.975 4.116-1.219 3.983-1.462 3.851-1.666 3.675-1.83 3.455-1.995 3.236-2.115 2.981-2.195 2.69-2.274 2.4-2.293 2.084-2.252 1.74-2.19 1.212-1.978 .772-1.622 .418-1.264 .064-.725-.072 0 0M-6.299-3.021C-6.509-3.056-6.67-3.026-6.77-2.936-6.874-2.844-6.935-2.733-6.956-2.602-7.018-2.215-7.081-1.827-7.144-1.44-7.167-1.296-7.141-1.15-7.071-1.004-6.998-.857-6.862-.769-6.658-.736-6.376-.692-6.095-.649-5.813-.606-4.918-.474-4.557 .203-4.725 1.438-4.812 2.068-4.78 2.668-4.621 3.238-4.464 3.808-4.196 4.314-3.826 4.757-3.45 5.198-2.992 5.562-2.447 5.845-1.9 6.128-1.282 6.307-.594 6.374 .169 6.451 .85 6.399 1.44 6.222 2.033 6.046 2.528 5.771 2.927 5.4 3.328 5.03 3.636 4.572 3.851 4.028 4.069 3.484 4.192 2.881 4.238 2.219 4.27 1.702 4.227 1.195 4.104 .695 3.982 .195 3.762-.254 3.443-.656 3.125-1.059 2.708-1.393 2.19-1.662 1.673-1.932 1.031-2.102 .262-2.179-.053-2.209-.368-2.227-.683-2.227-.998-2.228-1.315-2.197-1.634-2.133-1.951-2.069-2.263-1.966-2.562-1.822-2.861-1.679-3.147-1.483-3.412-1.237-3.566-1.727-3.818-2.104-4.165-2.374-4.512-2.644-4.897-2.81-5.322-2.872-5.648-2.921-5.973-2.971-6.299-3.021" fill="#58595b"/>
<path transform="matrix(1,0,0,-1,266.3052,319.0444)" d="M0 0C.913 .036 1.827 .062 2.74 .079 2.814-3.908 2.89-7.896 2.964-11.884 3.46-11.875 3.955-11.868 4.45-11.865 4.685-11.864 4.845-11.917 4.933-12.023 5.021-12.13 5.062-12.256 5.063-12.401 5.063-12.807 5.064-13.213 5.064-13.618 5.066-13.725 5.016-13.844 4.914-13.978 4.815-14.11 4.665-14.178 4.465-14.179 3.165-14.188 1.864-14.217 .564-14.269 .375-9.513 .188-4.757 0 0" fill="#58595b"/>
<path transform="matrix(1,0,0,-1,270.6851,333.2241)" d="M0 0C-.226-.001-.388 .05-.474 .155-.562 .261-.607 .38-.607 .513-.613 .905-.617 1.297-.622 1.689-.623 1.836-.574 1.976-.474 2.11-.375 2.244-.223 2.313-.017 2.313 1.192 2.322 2.401 2.313 3.611 2.284 3.843 2.279 4.004 2.222 4.087 2.112 4.172 2.004 4.214 1.877 4.208 1.73 4.196 1.325 4.185 .92 4.174 .515 4.171 .408 4.12 .29 4.024 .159 3.931 .028 3.779-.034 3.579-.029 2.386-.001 1.192 .009 0 0" fill="#58595b"/>
<path transform="matrix(1,0,0,-1,274.1562,333.2504)" d="M0 0C-.229 .006-.389 .061-.468 .169-.553 .277-.595 .397-.591 .53-.584 .923-.578 1.314-.571 1.707-.569 1.854-.516 1.991-.411 2.123-.307 2.254-.152 2.317 .052 2.313 1.261 2.286 2.47 2.24 3.678 2.177 3.912 2.164 4.068 2.103 4.149 1.991 4.23 1.88 4.269 1.751 4.258 1.605 4.235 1.201 4.212 .796 4.188 .391 4.183 .285 4.13 .168 4.028 .04 3.93-.087 3.776-.146 3.578-.135 2.386-.071 1.193-.026 0 0" fill="#58595b"/>
<path transform="matrix(1,0,0,-1,277.627,333.3793)" d="M0 0C-.226 .012-.384 .072-.463 .183-.544 .293-.582 .414-.576 .547-.557 .939-.539 1.331-.521 1.723-.515 1.868-.456 2.006-.348 2.134-.24 2.262-.081 2.321 .12 2.311 1.328 2.247 2.536 2.167 3.742 2.067 3.974 2.049 4.129 1.981 4.208 1.867 4.287 1.755 4.319 1.624 4.306 1.479 4.271 1.075 4.235 .671 4.2 .268 4.192 .161 4.131 .046 4.03-.078 3.927-.203 3.774-.257 3.574-.24 2.383-.142 1.192-.062 0 0" fill="#58595b"/>
<path transform="matrix(1,0,0,-1,281.0942,333.6108)" d="M0 0C-.229 .019-.379 .084-.458 .196-.535 .31-.569 .432-.56 .564-.53 .955-.5 1.347-.47 1.737-.458 1.883-.397 2.02-.285 2.144-.172 2.269-.016 2.322 .188 2.306 1.394 2.207 2.599 2.091 3.803 1.956 4.034 1.93 4.189 1.858 4.263 1.742 4.34 1.627 4.367 1.496 4.35 1.352 4.302 .948 4.255 .546 4.208 .143 4.196 .037 4.134-.076 4.028-.197 3.918-.319 3.767-.367 3.566-.346 2.379-.212 1.19-.097 0 0" fill="#58595b"/>
<path transform="matrix(1,0,0,-1,288.9419,334.517)" d="M0 0C-.082-.546-.163-1.091-.245-1.637-.315-2.11-.311-2.521-.227-2.869-.143-3.218-.021-3.507 .151-3.734 .319-3.963 .522-4.14 .755-4.266 .989-4.391 1.219-4.474 1.455-4.512 1.92-4.591 2.323-4.506 2.665-4.257 3.008-4.008 3.217-3.688 3.289-3.296 3.324-3.1 3.314-2.875 3.26-2.621 3.205-2.368 3.12-2.106 3.001-1.835 2.882-1.563 2.735-1.296 2.555-1.028 2.374-.761 2.176-.521 1.965-.311 1.311-.201 .656-.098 0 0M.256 2.301C.91 2.204 1.564 2.102 2.217 1.993 2.462 1.951 2.691 1.98 2.903 2.079 3.113 2.177 3.304 2.324 3.463 2.519 3.625 2.713 3.766 2.951 3.884 3.234 4.002 3.517 4.092 3.821 4.151 4.148 4.239 4.645 4.17 5.077 3.931 5.443 3.694 5.809 3.335 6.032 2.854 6.112 2.638 6.146 2.42 6.14 2.18 6.091 1.94 6.041 1.702 5.91 1.461 5.699 1.223 5.486 1.007 5.174 .815 4.759 .624 4.343 .478 3.793 .377 3.109 .336 2.84 .296 2.57 .256 2.301M-4.408 .575C-4.622 .599-4.765 .667-4.839 .782-4.915 .897-4.944 1.021-4.93 1.153-4.889 1.543-4.848 1.934-4.806 2.323-4.79 2.469-4.728 2.603-4.621 2.725-4.512 2.847-4.356 2.897-4.153 2.874-3.419 2.793-2.688 2.704-1.957 2.609L-1.813 3.717C-1.702 4.561-1.486 5.29-1.155 5.903-.822 6.517-.422 7.016 .057 7.397 .532 7.78 1.066 8.042 1.654 8.181 2.241 8.32 2.848 8.338 3.474 8.233 4.611 8.042 5.468 7.566 6.026 6.824 6.585 6.081 6.75 5.153 6.527 4.045 6.419 3.483 6.22 2.98 5.944 2.534 5.668 2.087 5.385 1.734 5.1 1.479 6.042 1.299 6.981 1.107 7.919 .905 8.147 .855 8.297 .77 8.357 .646 8.42 .523 8.436 .391 8.405 .248 8.317-.148 8.229-.544 8.142-.939 8.12-1.044 8.043-1.15 7.926-1.26 7.806-1.37 7.642-1.402 7.431-1.356 6.603-1.178 5.772-1.008 4.94-.847 5.162-1.282 5.326-1.746 5.432-2.234 5.536-2.723 5.549-3.156 5.473-3.534 5.365-4.068 5.175-4.545 4.907-4.966 4.639-5.387 4.31-5.735 3.92-6.012 3.531-6.289 3.096-6.484 2.612-6.599 2.127-6.713 1.613-6.723 1.064-6.631 .327-6.508-.277-6.281-.756-5.946-1.234-5.612-1.611-5.212-1.886-4.745-2.16-4.276-2.341-3.767-2.42-3.214-2.5-2.659-2.505-2.099-2.432-1.532-2.352-.919-2.271-.306-2.191 .307-2.93 .403-3.669 .492-4.408 .575" fill="#58595b"/>
<path transform="matrix(1,0,0,-1,296.2886,335.8549)" d="M0 0C-.225 .048-.368 .132-.431 .255-.494 .376-.512 .502-.485 .633L-.243 1.784C-.213 1.927-.135 2.054-.006 2.162 .121 2.271 .285 2.305 .486 2.262 1.675 2.006 2.86 1.731 4.043 1.439 4.268 1.383 4.417 1.292 4.474 1.167 4.535 1.043 4.546 .909 4.51 .768 4.411 .375 4.311-.019 4.211-.411 4.186-.515 4.11-.62 3.987-.726 3.862-.832 3.707-.86 3.509-.812 2.342-.523 1.173-.253 0 0" fill="#58595b"/>
<path transform="matrix(1,0,0,-1,299.6929,336.6411)" d="M0 0C-.224 .055-.365 .145-.423 .269-.484 .393-.497 .519-.466 .647-.374 1.028-.282 1.41-.19 1.792-.157 1.933-.074 2.058 .058 2.162 .187 2.268 .356 2.296 .554 2.246 1.737 1.955 2.916 1.646 4.091 1.317 4.317 1.255 4.46 1.159 4.514 1.032 4.574 .906 4.578 .772 4.539 .632 4.428 .242 4.316-.148 4.206-.538 4.177-.641 4.099-.743 3.972-.845 3.846-.947 3.686-.971 3.49-.917 2.33-.593 1.167-.287 0 0" fill="#58595b"/>
<path transform="matrix(1,0,0,-1,303.0796,337.5287)" d="M0 0C-.223 .062-.362 .155-.417 .28-.472 .405-.482 .533-.448 .661-.344 1.039-.242 1.418-.138 1.796-.099 1.937-.013 2.059 .121 2.159 .256 2.261 .421 2.284 .62 2.229 1.795 1.901 2.967 1.557 4.135 1.192 4.359 1.123 4.5 1.022 4.551 .895 4.604 .767 4.609 .633 4.563 .494L4.195-.666C4.165-.768 4.082-.867 3.953-.966 3.82-1.064 3.663-1.083 3.468-1.022 2.316-.664 1.16-.323 0 0" fill="#58595b"/>
<path transform="matrix(1,0,0,-1,314.3633,329.5073)" d="M0 0C.105 .301 .324 .514 .656 .635 .989 .758 1.35 .748 1.741 .604 2.134 .462 2.414 .235 2.591-.071 2.767-.379 2.797-.683 2.684-.98 2.57-1.278 2.35-1.485 2.018-1.604 1.687-1.721 1.332-1.709 .947-1.568 .561-1.428 .281-1.208 .107-.905-.069-.603-.104-.301 0 0M-3.512 1.183C-3.415 1.486-3.203 1.705-2.876 1.837-2.548 1.969-2.189 1.969-1.792 1.838-1.398 1.706-1.11 1.488-.926 1.187-.741 .885-.702 .583-.808 .282-.911-.02-1.128-.232-1.455-.36-1.781-.488-2.138-.485-2.523-.357-2.913-.228-3.194-.017-3.38 .281-3.566 .579-3.611 .879-3.512 1.183M-7.961-8.999C-8.155-8.939-8.277-8.846-8.329-8.719-8.382-8.592-8.385-8.464-8.349-8.337-8.234-7.962-8.121-7.587-8.006-7.212-7.963-7.072-7.876-6.952-7.747-6.853-7.615-6.754-7.459-6.732-7.276-6.789-6.312-7.089-5.351-7.399-4.393-7.724-3.792-5.947-3.192-4.172-2.591-2.396-1.757-2.678-.925-2.969-.095-3.27-.995-5.757-1.895-8.245-2.794-10.733-4.507-10.114-6.229-9.536-7.961-8.999" fill="#58595b"/>
<path transform="matrix(1,0,0,-1,281.3481,286.163)" d="M0 0C-24.691 5.093-51.18 1.957-75.059-10.631L-68.492-20.588C-43.437-7.747-15.279-6.421 9.682-14.89 6.049-10.165 2.812-5.186 0 0" fill="#ed1c24"/>
<path transform="matrix(1,0,0,-1,337.8491,296.9179)" d="M0 0 .511 .95C-27.875 17.921-47.195 48.484-48.471 83.653H-60.336C-59.061 44.312-37.581 10.087-5.936-9Z" fill="#009944"/>
<path transform="matrix(1,0,0,-1,324.918,316.5248)" d="M0 0C-26.805 17.576-42.681 46.136-45.058 76.262L-54.23 58.354C-47.833 31.162-31.379 6.413-6.523-9.892Z" fill="#007dc1"/>
<path transform="matrix(1,0,0,-1,277.6382,213.2651)" d="M0 0C-1.032-28.444-13.869-53.873-33.76-71.537-27.888-70.761-21.996-70.459-16.137-70.613 .568-51.659 10.99-27.038 11.867 0Z" fill="#ecb229"/>
<path transform="matrix(1,0,0,-1,219.0293,316.1118)" d="M0 0 6.57-9.961C34.911 4.503 69.471 5.203 99.238-10.497L105.792-.559C71.877 17.778 32.223 16.923 0 0" fill="#7570b3"/>
<path transform="matrix(1,0,0,-1,212.8262,306.7065)" d="M0 0C33.406 20.754 52.346 56.465 53.052 93.441H41.492L41.194 93.434C40.488 60.337 23.456 28.397-6.527 9.897Z" fill="#f5821f"/>
</g>
</g>
</svg>